<svg width="1440" height="907" viewBox="0 0 1440 907" fill="none" xmlns="http://www.w3.org/2000/svg">
<path fill-rule="evenodd" clip-rule="evenodd" d="M658.321 84.8405C974.172 164.17 1273.27 239.291 1826 8.99751V619.998C1273.27 850.291 974.172 775.17 658.321 695.84C449.558 643.408 233.476 589.136 -68 619.998V8.99751C233.476 -21.8637 449.558 32.4076 658.321 84.8405Z" fill="#759AFF" fill-opacity="0.05"/>
<path fill-rule="evenodd" clip-rule="evenodd" d="M658.321 147.841C974.172 227.17 1273.27 302.291 1826 71.9975V682.998C1273.27 913.291 974.172 838.17 658.321 758.84C449.558 706.408 233.476 652.136 -68 682.998V71.9975C233.476 41.1363 449.558 95.4076 658.321 147.841Z" fill="#759AFF" fill-opacity="0.1"/>
<path fill-rule="evenodd" clip-rule="evenodd" d="M658.321 216.841C974.172 296.17 1273.27 371.291 1826 140.998V751.998C1273.27 982.291 974.172 907.17 658.321 827.84C449.558 775.408 233.476 721.136 -68 751.998V140.998C233.476 110.136 449.558 164.408 658.321 216.841Z" fill="#08122A"/>
</svg>
