<svg width="163" height="39" viewBox="0 0 163 39" fill="none" xmlns="http://www.w3.org/2000/svg">
<path d="M0.898358 15.6851C0.898358 14.78 1.07124 13.9309 1.41699 13.1377C1.76275 12.3445 2.23053 11.653 2.82035 11.0631C3.42034 10.4632 4.11693 9.99029 4.91014 9.64453C5.70334 9.29878 6.55247 9.1259 7.45754 9.1259H17.4946V13.5038H7.45754C7.15246 13.5038 6.86772 13.5597 6.60332 13.6716C6.33892 13.7834 6.10503 13.941 5.90164 14.1444C5.70842 14.3376 5.55588 14.5665 5.44402 14.8309C5.33216 15.0953 5.27623 15.38 5.27623 15.6851C5.27623 15.9902 5.33216 16.28 5.44402 16.5546C5.55588 16.819 5.70842 17.0528 5.90164 17.2562C6.10503 17.4494 6.33892 17.602 6.60332 17.7138C6.86772 17.8257 7.15246 17.8816 7.45754 17.8816H11.8354C12.7405 17.8816 13.5896 18.0545 14.3828 18.4003C15.1862 18.7359 15.8828 19.2036 16.4726 19.8036C17.0726 20.3935 17.5404 21.09 17.876 21.8934C18.2217 22.6866 18.3946 23.5358 18.3946 24.4408C18.3946 25.3459 18.2217 26.195 17.876 26.9882C17.5404 27.7814 17.0726 28.478 16.4726 29.078C15.8828 29.6678 15.1862 30.1356 14.3828 30.4814C13.5896 30.8271 12.7405 31 11.8354 31H2.11867V26.6221H11.8354C12.1405 26.6221 12.4252 26.5662 12.6896 26.4543C12.954 26.3425 13.1828 26.1899 13.3761 25.9967C13.5794 25.7933 13.7371 25.5594 13.8489 25.295C13.9608 25.0306 14.0167 24.7459 14.0167 24.4408C14.0167 24.1357 13.9608 23.851 13.8489 23.5866C13.7371 23.3222 13.5794 23.0934 13.3761 22.9002C13.1828 22.6968 12.954 22.5392 12.6896 22.4273C12.4252 22.3154 12.1405 22.2595 11.8354 22.2595H7.45754C6.55247 22.2595 5.70334 22.0866 4.91014 21.7409C4.11693 21.3951 3.42034 20.9273 2.82035 20.3375C2.23053 19.7375 1.76275 19.0409 1.41699 18.2477C1.07124 17.4444 0.898358 16.5901 0.898358 15.6851ZM28.752 31C27.7452 31 26.7995 30.8119 25.9148 30.4356C25.03 30.0492 24.2521 29.5255 23.5809 28.8645C22.9199 28.1933 22.3962 27.4153 22.0098 26.5306C21.6335 25.6459 21.4454 24.7001 21.4454 23.6934V18.8426H19.4166V14.6936H21.4454V8.1649H25.5944V14.6936H31.9095V18.8426H25.5944V23.6934C25.5944 24.1307 25.6758 24.5425 25.8385 24.9289C26.0012 25.3052 26.2249 25.6357 26.5097 25.9204C26.7944 26.2052 27.13 26.434 27.5164 26.6069C27.9029 26.7696 28.3147 26.8509 28.752 26.8509H31.9095V31H28.752ZM50.077 31H49.0702L47.4533 28.7577C47.0567 29.1136 46.6347 29.4492 46.1872 29.7644C45.7499 30.0695 45.2872 30.339 44.7991 30.5729C44.311 30.7966 43.8076 30.9746 43.289 31.1068C42.7805 31.239 42.2619 31.3051 41.7331 31.3051C40.5839 31.3051 39.5009 31.1119 38.484 30.7254C37.4772 30.339 36.5925 29.7797 35.8298 29.0475C35.0773 28.3051 34.4824 27.4001 34.0451 26.3323C33.6078 25.2645 33.3892 24.0493 33.3892 22.6866C33.3892 21.4155 33.6078 20.2511 34.0451 19.1935C34.4824 18.1257 35.0773 17.2105 35.8298 16.4478C36.5925 15.6851 37.4772 15.0953 38.484 14.6783C39.5009 14.2512 40.5839 14.0377 41.7331 14.0377C42.2619 14.0377 42.7856 14.1038 43.3042 14.236C43.8229 14.3682 44.3262 14.5512 44.8144 14.7851C45.3025 15.019 45.7652 15.2936 46.2025 15.6088C46.6499 15.9241 47.0668 16.2647 47.4533 16.6308L49.0702 14.6936H50.077V31ZM45.8821 22.6866C45.8821 22.1171 45.7703 21.568 45.5465 21.0392C45.333 20.5002 45.0381 20.0274 44.6618 19.6206C44.2856 19.2036 43.8432 18.8731 43.3347 18.6291C42.8364 18.3749 42.3025 18.2477 41.7331 18.2477C41.1636 18.2477 40.6246 18.3443 40.1162 18.5376C39.6179 18.7308 39.1806 19.0155 38.8043 19.3918C38.4382 19.768 38.1484 20.2358 37.9348 20.7951C37.7213 21.3443 37.6145 21.9748 37.6145 22.6866C37.6145 23.3985 37.7213 24.034 37.9348 24.5934C38.1484 25.1425 38.4382 25.6052 38.8043 25.9815C39.1806 26.3577 39.6179 26.6425 40.1162 26.8357C40.6246 27.0289 41.1636 27.1255 41.7331 27.1255C42.3025 27.1255 42.8364 27.0035 43.3347 26.7594C43.8432 26.5052 44.2856 26.1747 44.6618 25.7679C45.0381 25.351 45.333 24.8781 45.5465 24.3493C45.7703 23.8103 45.8821 23.2561 45.8821 22.6866ZM57.4293 31H53.265V14.6631H54.2718L55.6446 16.6003C56.3158 15.9902 57.0785 15.5224 57.9327 15.197C58.7869 14.8614 59.6717 14.6936 60.5869 14.6936H64.2631V18.8426H60.5869C60.1496 18.8426 59.7378 18.924 59.3513 19.0867C58.9649 19.2494 58.6293 19.4731 58.3446 19.7579C58.0598 20.0426 57.8361 20.3782 57.6734 20.7646C57.5107 21.1511 57.4293 21.5629 57.4293 22.0002V31Z" fill="#759AFF"/>
<path d="M86.9761 31H82.8271V20.6273C82.8271 20.3426 82.7712 20.0731 82.6593 19.8189C82.5576 19.5647 82.4101 19.3409 82.2169 19.1477C82.0237 18.9545 81.8 18.807 81.5458 18.7054C81.2915 18.5935 81.022 18.5376 80.7373 18.5376C80.4526 18.5376 80.1831 18.5935 79.9288 18.7054C79.6848 18.807 79.4661 18.9545 79.2729 19.1477C79.0899 19.3409 78.9424 19.5647 78.8306 19.8189C78.7289 20.0731 78.678 20.3426 78.678 20.6273V31H74.5137V20.6273C74.5137 20.3426 74.4578 20.0731 74.3459 19.8189C74.2442 19.5647 74.0968 19.3409 73.9036 19.1477C73.7103 18.9545 73.4866 18.807 73.2324 18.7054C72.9781 18.5935 72.7087 18.5376 72.4239 18.5376C72.1392 18.5376 71.8697 18.5935 71.6155 18.7054C71.3714 18.807 71.1528 18.9545 70.9595 19.1477C70.7765 19.3409 70.629 19.5647 70.5172 19.8189C70.4155 20.0731 70.3646 20.3426 70.3646 20.6273V31H66.2003V14.6631H67.2071L68.3359 15.9139C68.9155 15.4258 69.5511 15.0495 70.2426 14.7851C70.9443 14.5105 71.6714 14.3732 72.4239 14.3732C73.1866 14.3732 73.929 14.5156 74.651 14.8004C75.3832 15.0851 76.0238 15.5783 76.573 16.28C76.8272 15.9342 77.117 15.6393 77.4425 15.3953C77.7679 15.1512 78.1085 14.9529 78.4645 14.8004C78.8306 14.6478 79.2068 14.541 79.5933 14.48C79.9797 14.4088 80.361 14.3732 80.7373 14.3732C81.6017 14.3732 82.4101 14.536 83.1627 14.8614C83.9254 15.1868 84.5864 15.6342 85.1457 16.2037C85.7152 16.763 86.1626 17.424 86.488 18.1867C86.8134 18.9494 86.9761 19.763 86.9761 20.6273V31ZM105.815 22.6866C105.815 23.9069 105.596 25.0459 105.159 26.1035C104.722 27.1509 104.127 28.0611 103.374 28.8339C102.622 29.5966 101.737 30.2017 100.72 30.6492C99.7132 31.0864 98.6301 31.3051 97.4708 31.3051C96.3217 31.3051 95.2387 31.0864 94.2218 30.6492C93.215 30.2017 92.3303 29.5966 91.5676 28.8339C90.815 28.0611 90.2201 27.1509 89.7829 26.1035C89.3456 25.0459 89.1269 23.9069 89.1269 22.6866C89.1269 21.446 89.3456 20.2968 89.7829 19.2392C90.2201 18.1816 90.815 17.2715 91.5676 16.5088C92.3303 15.7359 93.215 15.1309 94.2218 14.6936C95.2387 14.2563 96.3217 14.0377 97.4708 14.0377C98.6301 14.0377 99.7132 14.2461 100.72 14.6631C101.737 15.0698 102.622 15.6546 103.374 16.4173C104.127 17.1698 104.722 18.0799 105.159 19.1477C105.596 20.2053 105.815 21.385 105.815 22.6866ZM101.62 22.6866C101.62 22.0154 101.508 21.4104 101.284 20.8714C101.071 20.3223 100.776 19.8545 100.4 19.468C100.023 19.0714 99.581 18.7715 99.0725 18.5681C98.5742 18.3545 98.0403 18.2477 97.4708 18.2477C96.9014 18.2477 96.3624 18.3545 95.8539 18.5681C95.3556 18.7715 94.9183 19.0714 94.5421 19.468C94.176 19.8545 93.8862 20.3223 93.6726 20.8714C93.4591 21.4104 93.3523 22.0154 93.3523 22.6866C93.3523 23.3171 93.4591 23.9018 93.6726 24.4408C93.8862 24.9798 94.176 25.4476 94.5421 25.8442C94.9183 26.2408 95.3556 26.556 95.8539 26.7899C96.3624 27.0136 96.9014 27.1255 97.4708 27.1255C98.0403 27.1255 98.5742 27.0187 99.0725 26.8052C99.581 26.5916 100.023 26.2916 100.4 25.9052C100.776 25.5188 101.071 25.051 101.284 24.5018C101.508 23.9527 101.62 23.3476 101.62 22.6866ZM112.267 31L106.044 14.6631H110.787L114.357 24.8527L117.911 14.6631H122.67L116.447 31H112.267ZM129.168 10.2242C129.168 10.6106 129.092 10.9716 128.94 11.3072C128.797 11.6428 128.599 11.9377 128.345 12.1919C128.091 12.436 127.791 12.6343 127.445 12.7868C127.109 12.9292 126.748 13.0004 126.362 13.0004C125.975 13.0004 125.609 12.9292 125.263 12.7868C124.928 12.6343 124.633 12.436 124.379 12.1919C124.135 11.9377 123.936 11.6428 123.784 11.3072C123.641 10.9716 123.57 10.6106 123.57 10.2242C123.57 9.84792 123.641 9.49199 123.784 9.15641C123.936 8.81065 124.135 8.51574 124.379 8.27168C124.633 8.01745 124.928 7.81915 125.263 7.67678C125.609 7.52424 125.975 7.44797 126.362 7.44797C126.748 7.44797 127.109 7.52424 127.445 7.67678C127.791 7.81915 128.091 8.01745 128.345 8.27168C128.599 8.51574 128.797 8.81065 128.94 9.15641C129.092 9.49199 129.168 9.84792 129.168 10.2242ZM128.452 31H124.257V14.6631H128.452V31ZM138.138 27.0035C138.3 27.0543 138.463 27.0899 138.626 27.1103C138.789 27.1204 138.951 27.1255 139.114 27.1255C139.521 27.1255 139.912 27.0696 140.289 26.9577C140.665 26.8459 141.016 26.6882 141.341 26.4848C141.677 26.2713 141.972 26.0171 142.226 25.7221C142.49 25.4171 142.704 25.0815 142.866 24.7154L145.917 27.7814C145.531 28.3306 145.083 28.8238 144.575 29.2611C144.077 29.6983 143.533 30.0695 142.943 30.3746C142.363 30.6797 141.748 30.9085 141.097 31.061C140.456 31.2237 139.795 31.3051 139.114 31.3051C137.965 31.3051 136.882 31.0915 135.865 30.6644C134.858 30.2373 133.973 29.6424 133.211 28.8797C132.458 28.117 131.863 27.2119 131.426 26.1645C130.989 25.1069 130.77 23.9476 130.77 22.6866C130.77 21.3951 130.989 20.2155 131.426 19.1477C131.863 18.0799 132.458 17.1698 133.211 16.4173C133.973 15.6647 134.858 15.08 135.865 14.6631C136.882 14.2461 137.965 14.0377 139.114 14.0377C139.795 14.0377 140.461 14.119 141.112 14.2817C141.763 14.4444 142.378 14.6783 142.958 14.9834C143.548 15.2885 144.097 15.6647 144.605 16.1122C145.114 16.5495 145.561 17.0427 145.948 17.5918L138.138 27.0035ZM140.273 18.4155C140.08 18.3443 139.887 18.2986 139.694 18.2782C139.511 18.2579 139.317 18.2477 139.114 18.2477C138.545 18.2477 138.006 18.3545 137.497 18.5681C136.999 18.7715 136.562 19.0664 136.185 19.4528C135.819 19.8392 135.529 20.307 135.316 20.8562C135.102 21.3951 134.995 22.0053 134.995 22.6866C134.995 22.8392 135.001 23.012 135.011 23.2053C135.031 23.3985 135.056 23.5968 135.087 23.8002C135.128 23.9934 135.173 24.1815 135.224 24.3646C135.275 24.5476 135.341 24.7103 135.423 24.8527L140.273 18.4155ZM157.022 31H147.504V26.8509H157.022C157.307 26.8509 157.551 26.7492 157.754 26.5459C157.958 26.3425 158.059 26.0984 158.059 25.8137C158.059 25.5188 157.958 25.3255 157.754 25.234C157.551 25.1425 157.307 25.0967 157.022 25.0967H152.69C151.968 25.0967 151.292 24.9595 150.661 24.6849C150.031 24.4103 149.482 24.0391 149.014 23.5713C148.546 23.0934 148.175 22.5392 147.9 21.9087C147.636 21.2782 147.504 20.6019 147.504 19.8799C147.504 19.1579 147.636 18.4816 147.9 17.8511C148.175 17.2206 148.546 16.6715 149.014 16.2037C149.482 15.7359 150.031 15.3698 150.661 15.1054C151.292 14.8309 151.968 14.6936 152.69 14.6936H161.125V18.8426H152.69C152.405 18.8426 152.161 18.9443 151.958 19.1477C151.754 19.3511 151.653 19.5952 151.653 19.8799C151.653 20.1748 151.754 20.429 151.958 20.6426C152.161 20.846 152.405 20.9477 152.69 20.9477H157.022C157.734 20.9477 158.405 21.0697 159.036 21.3138C159.666 21.5477 160.215 21.8782 160.683 22.3053C161.151 22.7324 161.522 23.2459 161.797 23.8459C162.071 24.4459 162.208 25.1018 162.208 25.8137C162.208 26.5357 162.071 27.2119 161.797 27.8424C161.522 28.4628 161.151 29.0119 160.683 29.4899C160.215 29.9576 159.666 30.3288 159.036 30.6034C158.405 30.8678 157.734 31 157.022 31Z" fill="white"/>
<path d="M97.5 17L98.7348 20.8004H102.731L99.498 23.1492L100.733 26.9496L97.5 24.6008L94.2672 26.9496L95.502 23.1492L92.2692 20.8004H96.2652L97.5 17Z" fill="#759AFF"/>
</svg>
